<svg width="24" height="24" viewBox="0 0 24 24" fill="none" xmlns="http://www.w3.org/2000/svg">
<path d="M12 2C6.477 2 2 6.477 2 12C2 17.523 6.477 22 12 22C17.523 22 22 17.523 22 12C22 6.477 17.523 2 12 2Z" fill="url(#paint0_linear)"/>
<path d="M13.3538 14.65H15.9418L16.3483 12.021H13.3538V10.584C13.3538 9.49197 13.7108 8.52347 14.7323 8.52347H16.3738V6.22947C16.0853 6.19047 15.4753 6.10547 14.3228 6.10547C11.9158 6.10547 10.5048 7.37647 10.5048 10.2725V12.0215H8.03027V14.6505H10.5043V21.8765C10.9943 21.9495 11.4908 21.9995 12.0003 21.9995C12.4608 21.9995 12.9103 21.9575 13.3538 21.8975V14.65Z" fill="white"/>
<defs>
<linearGradient id="paint0_linear" x1="4.9965" y1="4.9965" x2="20.3075" y2="20.3075" gradientUnits="userSpaceOnUse">
<stop stop-color="#2AA4F4"/>
<stop offset="1" stop-color="#007AD9"/>
</linearGradient>
</defs>
</svg>
