<svg width="50" height="24" viewBox="0 0 50 24" fill="none" xmlns="http://www.w3.org/2000/svg">
<g clip-path="url(#clip0)">
<path d="M16.2153 24.0004L18.4071 22.6445L18.7546 24.0004H16.2153Z" fill="black"/>
<path d="M12.9756 22.292L15.8779 20.957V22.3442L12.9756 22.292Z" fill="black"/>
<path d="M19.0339 23.8795L21.6098 21.4605L20.2722 19.1328L18.6421 22.3696L19.0339 23.8795Z" fill="black"/>
<path d="M23.7256 5.44336L29.6191 12.0161L46.7068 11.8907L23.7256 5.44336Z" fill="black"/>
<path d="M9.11741 11.9492L9.09912 15.1363H12.5004L9.11741 11.9492Z" fill="black"/>
<path d="M11.1052 16.9383L9.125 15.4336H11.0529L11.1052 16.9383Z" fill="black"/>
<path d="M21.7849 21.1712L17.626 13.9297L23.112 16.6126L21.7849 21.1712Z" fill="black"/>
<path d="M43.5488 10.6971L46.9267 11.6454L49.8578 9.91602L43.5488 10.6971Z" fill="black"/>
<path d="M3.00454 9.53556L6.58612 8.35215L7.09032 5.26953L2.12939 9.15154L3.00454 9.53556Z" fill="black"/>
<path d="M16.1733 22.3434L19.6609 18.0695L18.1457 15.4336H16.1733V22.3434Z" fill="black"/>
<path d="M17.6885 13.6323L23.3809 16.4145L29.2535 12.0518L23.3913 5.51562L19.0913 7.16665L17.6885 13.6323Z" fill="black"/>
<path d="M0 4.15102L5.81517 5.89087L7.13182 4.85898L7.74312 1.26172H1.47861L0 4.15102Z" fill="black"/>
<path d="M8.04088 1.26172L6.89404 8.29688L9.11196 11.5388L13.0305 7.73783L11.2802 4.37568L8.04088 1.26172Z" fill="black"/>
<path d="M12.9313 15.1361H17.9758L17.3122 13.9814L18.7647 7.27539L13.4929 7.6986L9.32617 11.74L12.9313 15.1361Z" fill="black"/>
<path d="M4.56137 0.963971H3.10889L3.8717 0L4.56137 0.963971Z" fill="black"/>
</g>
<defs>
<clipPath id="clip0">
<rect width="49.8574" height="24" fill="white"/>
</clipPath>
</defs>
</svg>
